<svg width="32" height="32" viewBox="0 0 32 32" fill="none" xmlns="http://www.w3.org/2000/svg">
<path d="M23.586 15H5C4.73478 15 4.48043 15.1054 4.29289 15.2929C4.10536 15.4804 4 15.7348 4 16C4 16.2652 4.10536 16.5196 4.29289 16.7071C4.48043 16.8947 4.73478 17 5 17H23.586L16.292 24.292C16.1042 24.4798 15.9987 24.7345 15.9987 25C15.9987 25.2656 16.1042 25.5202 16.292 25.708C16.4798 25.8958 16.7344 26.0013 17 26.0013C17.2656 26.0013 17.5202 25.8958 17.708 25.708L26.708 16.708C26.8011 16.6151 26.875 16.5048 26.9254 16.3833C26.9758 16.2618 27.0018 16.1315 27.0018 16C27.0018 15.8685 26.9758 15.7382 26.9254 15.6167C26.875 15.4953 26.8011 15.3849 26.708 15.292L17.708 6.29201C17.5202 6.10424 17.2656 5.99875 17 5.99875C16.7344 5.99875 16.4798 6.10424 16.292 6.29201C16.1042 6.47979 15.9987 6.73446 15.9987 7.00001C15.9987 7.26556 16.1042 7.52024 16.292 7.70801L23.586 15Z" fill="#FFCC00"/>
</svg>
