<svg width="42" height="43" viewBox="0 0 42 43"  xmlns="http://www.w3.org/2000/svg">
<path fill-rule="evenodd" clip-rule="evenodd" d="M28 16.25C28 18.1065 27.2625 19.887 25.9497 21.1997C24.637 22.5125 22.8565 23.25 21 23.25C19.1435 23.25 17.363 22.5125 16.0503 21.1997C14.7375 19.887 14 18.1065 14 16.25C14 14.3935 14.7375 12.613 16.0503 11.3003C17.363 9.9875 19.1435 9.25 21 9.25C22.8565 9.25 24.637 9.9875 25.9497 11.3003C27.2625 12.613 28 14.3935 28 16.25ZM24.5 16.25C24.5 17.1783 24.1313 18.0685 23.4749 18.7249C22.8185 19.3813 21.9283 19.75 21 19.75C20.0717 19.75 19.1815 19.3813 18.5251 18.7249C17.8687 18.0685 17.5 17.1783 17.5 16.25C17.5 15.3217 17.8687 14.4315 18.5251 13.7751C19.1815 13.1187 20.0717 12.75 21 12.75C21.9283 12.75 22.8185 13.1187 23.4749 13.7751C24.1313 14.4315 24.5 15.3217 24.5 16.25Z"/>
<path fill-rule="evenodd" clip-rule="evenodd" d="M21 2.25C10.3688 2.25 1.75 10.8688 1.75 21.5C1.75 32.1312 10.3688 40.75 21 40.75C31.6312 40.75 40.25 32.1312 40.25 21.5C40.25 10.8688 31.6312 2.25 21 2.25ZM5.25 21.5C5.25 25.1575 6.49775 28.5245 8.589 31.1985C10.058 29.2702 11.9528 27.7075 14.1254 26.6323C16.298 25.5571 18.6896 24.9984 21.1137 25C23.5067 24.9972 25.8686 25.5409 28.0195 26.5897C30.1703 27.6384 32.0533 29.1645 33.5247 31.0515C35.041 29.0628 36.062 26.7416 36.5031 24.28C36.9442 21.8184 36.7928 19.2872 36.0614 16.8957C35.33 14.5043 34.0396 12.3213 32.2971 10.5276C30.5546 8.7338 28.4099 7.38075 26.0407 6.58039C23.6714 5.78003 21.1456 5.55535 18.6723 5.92495C16.1989 6.29456 13.8491 7.24781 11.8173 8.70584C9.78556 10.1639 8.13017 12.0848 6.98815 14.3096C5.84613 16.5344 5.25032 18.9992 5.25 21.5ZM21 37.25C17.3843 37.2559 13.8778 36.012 11.074 33.729C12.2024 32.1131 13.7046 30.7937 15.4526 29.8833C17.2007 28.9729 19.1428 28.4983 21.1137 28.5C23.0601 28.4983 24.9787 28.961 26.7102 29.8498C28.4418 30.7385 29.9362 32.0276 31.0695 33.61C28.2441 35.9673 24.6796 37.2558 21 37.25Z"/>
</svg>
