<svg width="120" height="49" viewBox="0 0 120 49" fill="none" xmlns="http://www.w3.org/2000/svg">
<g clip-path="url(#clip0_1_5)">
<path d="M6.86211 48.5983C6.96211 47.6681 7.05586 46.4594 7.14961 44.9617C7.24336 43.464 7.28711 42.2764 7.28711 41.3883L0.412109 31.4824C1.53711 31.4982 2.40586 31.5087 3.03711 31.5087C3.66836 31.5087 4.42461 31.4982 5.41836 31.4824C5.88086 32.3495 6.55586 33.4531 7.44336 34.7826C8.32461 36.1122 9.08711 37.3366 9.73086 38.4454L14.0434 32.4284C14.1871 32.2181 14.3996 31.9028 14.6809 31.4772C15.6434 31.4929 16.4996 31.5035 17.2434 31.5035C17.6309 31.5035 18.4309 31.4929 19.6434 31.4772L11.6996 41.651L11.5809 44.8251C11.5371 45.7605 11.5184 47.0217 11.5246 48.5983C10.4621 48.5825 9.68711 48.572 9.19961 48.572C8.71211 48.572 7.92461 48.5825 6.86211 48.5983ZM17.9434 48.5983C18.9434 47.0585 20.1184 45.1562 21.4684 42.8912L25.2621 36.5589C26.4434 34.604 27.4246 32.9118 28.1996 31.4824C29.4934 31.4982 30.4059 31.5087 30.9434 31.5087C31.8871 31.5087 32.8121 31.4982 33.7184 31.4824L35.9559 36.6114L40.8121 47.2162L41.4809 48.593L39.2434 48.5667C38.7246 48.5667 37.8559 48.5772 36.6371 48.593C36.3809 47.8468 35.9871 46.8483 35.4496 45.5818C34.9121 44.3154 34.4559 43.2959 34.0809 42.5076H26.2309C25.1121 44.4993 24.0184 46.5225 22.9559 48.5878L20.5246 48.5615C20.0684 48.572 19.2121 48.5825 17.9434 48.5983ZM27.4996 39.9063H33.2121L30.7496 34.1047L29.5871 36.2173L27.4996 39.9063ZM42.5496 48.5983C42.6121 47.4632 42.6434 46.5172 42.6434 45.7658L43.3309 45.1141C43.3621 45.0879 43.7746 44.6622 44.5746 43.8372L51.7309 36.4748L53.9934 34.0679L53.0059 34.0574H52.6309L51.3309 34.0469H49.0621C47.1934 34.0469 45.3684 34.0942 43.5871 34.1836C43.6309 33.5319 43.6496 32.8277 43.6309 32.0763C43.6309 31.9344 43.6184 31.7399 43.6059 31.4877C46.1996 31.5035 48.9559 31.514 51.8684 31.514L56.8496 31.5035L59.5621 31.4929C59.4996 32.4021 59.4684 33.3375 59.4684 34.2887L58.4746 35.2293C58.2809 35.4132 58.0871 35.6077 57.9059 35.8074L52.6934 41.2727L48.1184 45.9602L49.3121 45.9707C52.6809 45.9707 54.8434 45.9602 55.8121 45.9444C56.7809 45.9287 57.8309 45.8919 58.9746 45.8288C58.9184 47.0007 58.8871 47.9204 58.8809 48.5878C56.0246 48.572 53.4121 48.5615 51.0371 48.5615L45.5371 48.572L42.5496 48.5983ZM62.5809 48.5983C62.7559 45.7237 62.8934 42.7756 62.9746 39.7539C63.0621 36.7323 63.0871 34.42 63.0559 32.8277L63.0121 31.4877L65.5059 31.514C65.6434 31.514 66.4059 31.5035 67.7871 31.4877C67.4746 35.8862 67.3309 41.588 67.3684 48.6035L65.1746 48.5772C64.8121 48.572 63.9434 48.5825 62.5809 48.5983ZM71.4246 48.5983C71.6684 46.0811 71.8496 43.2801 71.9621 40.1901C72.0746 37.1001 72.1184 34.1993 72.0934 31.4824C73.1059 31.4982 73.9559 31.5087 74.6309 31.5087C75.0871 31.5087 75.8184 31.4982 76.8246 31.4824C76.7246 32.9854 76.6371 34.6986 76.5684 36.6219L76.3684 41.651C76.3059 43.0909 76.2684 44.5203 76.2621 45.9392L78.8309 45.9655C81.2434 45.9655 82.8246 45.9602 83.5809 45.9444C84.3371 45.9339 85.0809 45.9077 85.8184 45.8761C85.7434 46.6959 85.6871 47.5998 85.6371 48.5983C83.0246 48.5825 80.7871 48.572 78.9246 48.572L74.2246 48.5825L71.4246 48.5983ZM87.9621 48.5983C88.1371 45.7237 88.2684 42.7756 88.3559 39.7539C88.4434 36.7323 88.4684 34.42 88.4371 32.8277L88.3934 31.4877L90.8871 31.514C91.0246 31.514 91.7871 31.5035 93.1684 31.4877C92.8559 35.8862 92.7121 41.588 92.7496 48.6035L90.5559 48.5772C90.1934 48.572 89.3246 48.5825 87.9621 48.5983ZM96.5371 48.5983L96.8684 45.7658L97.6496 35.8074L97.9059 31.4824C99.3246 31.4982 100.362 31.5087 101.018 31.5087C101.543 31.5087 102.506 31.4982 103.893 31.4824C104.068 32.1603 104.193 32.6386 104.281 32.9223C104.368 33.2061 104.531 33.6633 104.775 34.2887C105.018 34.914 105.325 35.676 105.706 36.5694C106.262 37.9252 106.762 39.26 107.212 40.5843L108.425 44.1682L110.325 39.5648L113.1 33.5845C113.193 33.3848 113.293 33.1536 113.393 32.8908C113.493 32.628 113.656 32.1551 113.893 31.4824C115.075 31.4982 116.131 31.5087 117.056 31.5087C117.675 31.5087 118.656 31.4982 120.012 31.4824C119.925 33.8893 119.875 36.5483 119.868 39.4649C119.862 42.3815 119.868 44.5518 119.9 45.9917C119.912 46.6854 119.943 47.5578 119.981 48.5983C118.993 48.5825 118.325 48.572 117.968 48.572C117.45 48.572 116.768 48.5825 115.912 48.5983C115.956 47.7469 115.981 47.0428 115.987 46.491L116.081 39.0287C116.087 37.9777 116.081 36.9372 116.062 35.9177L116.025 34.9035L110.781 47.1058L110.175 48.5983C109.206 48.5825 108.543 48.572 108.181 48.572C107.731 48.572 107.031 48.5825 106.068 48.5983L103.343 40.8733C103.25 40.6 103.025 40.022 102.681 39.1444L101.7 36.5851C101.606 36.3434 101.531 36.1437 101.487 35.9913C101.443 35.8389 101.337 35.4921 101.175 34.956L101.012 36.5589C100.975 37.0686 100.918 37.9199 100.843 39.1181L100.425 46.8904C100.412 47.274 100.412 47.8415 100.412 48.5983L98.4871 48.572C98.1621 48.572 97.5121 48.5825 96.5371 48.5983ZM119.962 26.6793H113.193L108.475 4.8654L91.3621 26.6793H84.5621L105.518 0.913574H113.681L119.962 26.6793ZM63.7996 15.7697H69.0621L67.4496 22.1862C59.3996 23.6523 54.2871 22.6539 53.0246 18.8597L46.7496 20.6832C48.7996 26.0434 56.5809 27.8459 70.5309 25.9278L72.7496 25.6125L76.1434 12.1542L63.7996 15.7697ZM64.7434 1.01342C55.0621 1.57046 47.5871 7.42989 46.3684 15.3441C46.2621 16.0535 46.1996 16.7261 46.1996 17.3725L52.8184 15.4702C52.8559 15.1864 52.9121 14.8921 52.9746 14.5873C53.4121 12.5221 54.4309 10.5724 55.9996 8.95386C60.1246 4.71826 66.7559 3.8354 75.7121 6.04254L76.7559 1.89628C72.3996 1.08174 68.3809 0.803217 64.7434 1.01342ZM22.7934 0.913574H6.44961L1.19961 22.8904C3.56211 22.1967 5.91836 21.503 8.28086 20.8093L14.3621 19.0804H8.68711L12.0684 4.83387H19.3746C32.7371 4.83387 27.0121 22.7222 13.9496 22.7222H13.8621C9.36836 24.0412 4.87461 25.3603 0.380859 26.6793L14.7621 26.611C35.6559 26.611 40.8246 0.913574 22.7934 0.913574Z" fill="black"/>
<path d="M6.50615 48.1847C6.60615 47.2545 6.6999 46.0459 6.79365 44.5482C6.8874 43.0505 6.93115 41.8628 6.93115 40.9747L0.0499023 31.0689C1.1749 31.0846 2.04365 31.0951 2.6749 31.0951C3.30615 31.0951 4.0624 31.0846 5.05615 31.0689C5.51865 31.936 6.19365 33.0395 7.08115 34.3691C7.9624 35.6986 8.7249 36.923 9.36865 38.0319L13.6812 32.0148C13.8249 31.8046 14.0374 31.4893 14.3187 31.0636C15.2812 31.0794 16.1374 31.0899 16.8812 31.0899C17.2687 31.0899 18.0687 31.0794 19.2812 31.0636L11.3437 41.2375L11.2249 44.4115C11.1812 45.3469 11.1624 46.6082 11.1687 48.1847C10.1062 48.1689 9.33115 48.1584 8.84365 48.1584C8.35615 48.1584 7.56865 48.1637 6.50615 48.1847ZM17.5874 48.1847C18.5874 46.645 19.7624 44.7426 21.1124 42.4777L24.9062 36.1453C26.0874 34.1904 27.0687 32.4982 27.8437 31.0689C29.1374 31.0846 30.0499 31.0951 30.5874 31.0951C31.5312 31.0951 32.4561 31.0846 33.3624 31.0689L35.5999 36.1978L40.4561 46.8079L41.1249 48.1847L38.8874 48.1584C38.3686 48.1584 37.4999 48.1689 36.2811 48.1847C36.0249 47.4385 35.6311 46.44 35.0936 45.1735C34.5561 43.907 34.0999 42.8876 33.7249 42.0993H25.8749C24.7562 44.091 23.6624 46.1142 22.5999 48.1794L20.1687 48.1532C19.7124 48.1584 18.8499 48.1637 17.5874 48.1847ZM27.1437 39.4928H32.8561L30.3874 33.6911L29.2249 35.8037L27.1437 39.4928ZM42.1936 48.1847C42.2561 47.0496 42.2874 46.1037 42.2874 45.3522L42.9749 44.7006C43.0061 44.6743 43.4186 44.2486 44.2186 43.4236L51.3749 36.0559L53.6374 33.6491L52.6499 33.6386H52.2749L50.9749 33.6281H48.7061C46.8374 33.6281 45.0124 33.6754 43.2311 33.7647C43.2749 33.1131 43.2936 32.4089 43.2749 31.6574C43.2749 31.5155 43.2624 31.3211 43.2499 31.0689C45.8436 31.0846 48.5999 31.0951 51.5124 31.0951L56.4936 31.0846L59.2061 31.0741C59.1436 31.9832 59.1124 32.9187 59.1124 33.8698L58.1249 34.8052C57.9311 34.9892 57.7374 35.1836 57.5561 35.3833L52.3374 40.8591L47.7624 45.5466L48.9561 45.5571C52.3249 45.5571 54.4874 45.5466 55.4561 45.5309C56.4249 45.5151 57.4749 45.4783 58.6186 45.4153C58.5624 46.5871 58.5311 47.5068 58.5249 48.1742C55.6686 48.1584 53.0561 48.1479 50.6811 48.1479L45.1811 48.1584L42.1936 48.1847ZM62.2249 48.1847C62.3999 45.3102 62.5374 42.362 62.6186 39.3404C62.7061 36.3187 62.7311 34.0065 62.6999 32.4142L62.6561 31.0741L65.1499 31.1004C65.2874 31.1004 66.0499 31.0899 67.4311 31.0741C67.1186 35.4726 66.9749 41.1744 67.0124 48.1899L64.8186 48.1637C64.4499 48.1584 63.5874 48.1637 62.2249 48.1847ZM71.0686 48.1847C71.3124 45.6675 71.4936 42.8665 71.6061 39.7765C71.7186 36.6866 71.7624 33.7857 71.7374 31.0689C72.7499 31.0846 73.5999 31.0951 74.2749 31.0951C74.7311 31.0951 75.4624 31.0846 76.4686 31.0689C76.3686 32.5718 76.2811 34.285 76.2124 36.2083L76.0124 41.2375C75.9499 42.6774 75.9124 44.1067 75.9061 45.5256L78.4749 45.5519C80.8874 45.5519 82.4686 45.5466 83.2249 45.5309C83.9811 45.5204 84.7249 45.4941 85.4624 45.4626C85.3874 46.2823 85.3311 47.1862 85.2811 48.1847C82.6686 48.1689 80.4311 48.1584 78.5686 48.1584L73.8686 48.1689L71.0686 48.1847ZM87.6061 48.1847C87.7811 45.3102 87.9124 42.362 87.9999 39.3404C88.0874 36.3187 88.1124 34.0065 88.0811 32.4142L88.0374 31.0741L90.5311 31.1004C90.6686 31.1004 91.4311 31.0899 92.8124 31.0741C92.4999 35.4726 92.3561 41.1744 92.3936 48.1899L90.1999 48.1637C89.8374 48.1584 88.9686 48.1637 87.6061 48.1847ZM96.1811 48.1847L96.5124 45.3522L97.2936 35.3938L97.5499 31.0689C98.9686 31.0846 100.006 31.0951 100.662 31.0951C101.187 31.0951 102.15 31.0846 103.537 31.0689C103.712 31.7468 103.837 32.225 103.925 32.5088C104.012 32.7925 104.175 33.2497 104.419 33.8751C104.662 34.5004 104.969 35.2624 105.35 36.1558C105.906 37.5116 106.406 38.8464 106.856 40.1707L108.069 43.7546L109.969 39.1512L112.744 33.1709C112.837 32.9712 112.937 32.74 113.037 32.4772C113.137 32.2145 113.3 31.7415 113.537 31.0689C114.719 31.0846 115.775 31.0951 116.7 31.0951C117.319 31.0951 118.3 31.0846 119.656 31.0689C119.569 33.4757 119.519 36.1348 119.512 39.0513C119.506 41.9679 119.512 44.1383 119.544 45.5782C119.556 46.2718 119.587 47.1442 119.625 48.1847C118.637 48.1689 117.969 48.1584 117.612 48.1584C117.094 48.1584 116.412 48.1689 115.556 48.1847C115.6 47.3334 115.625 46.6292 115.631 46.0774L115.725 38.6152C115.731 37.5642 115.725 36.5236 115.706 35.5042L115.669 34.4899L110.425 46.6922L109.819 48.1847C108.85 48.1689 108.187 48.1584 107.825 48.1584C107.375 48.1584 106.675 48.1689 105.712 48.1847L102.987 40.4597C102.894 40.1864 102.669 39.6084 102.325 38.7308L101.344 36.1716C101.25 35.9298 101.175 35.7301 101.131 35.5777C101.087 35.4253 100.981 35.0785 100.819 34.5425L100.656 36.1453C100.619 36.655 100.562 37.5063 100.487 38.7045L100.069 46.4768C100.056 46.8604 100.056 47.428 100.056 48.1847L98.1311 48.1584C97.8061 48.1584 97.1561 48.1689 96.1811 48.1847ZM119.606 26.2657H112.837L108.119 4.45183L91.0061 26.2657H84.2124L105.156 0.5H113.319L119.606 26.2657ZM63.4436 15.3561H68.7061L67.0936 21.7726C59.0436 23.2388 53.9311 22.2403 52.6686 18.4461L46.3936 20.2697C48.4436 25.6298 56.2249 27.4323 70.1749 25.5142L72.3936 25.1989L75.7874 11.7406L63.4436 15.3561ZM64.3874 0.599847C54.7061 1.15689 47.2249 7.01631 46.0124 14.9305C45.9061 15.6399 45.8436 16.3126 45.8436 16.9589L52.4624 15.0566C52.4999 14.7728 52.5561 14.4785 52.6186 14.1737C53.0561 12.1085 54.0749 10.1589 55.6436 8.54029C59.7686 4.30469 66.3999 3.42183 75.3561 5.62897L76.3999 1.4827C72.0374 0.668163 68.0249 0.389643 64.3874 0.599847ZM22.4374 0.5H6.0874L0.837402 22.4715C3.1999 21.7831 5.5624 21.0894 7.91865 20.3958L13.9999 18.6668H8.33115L11.7124 4.4203H19.0124C32.3749 4.41504 26.6499 22.3086 13.5874 22.3086H13.4999C9.00615 23.6277 4.5124 24.9467 0.0249023 26.271L14.4062 26.2026C35.2937 26.1974 40.4687 0.5 22.4374 0.5Z" fill="#FFCD05"/>
</g>
<defs>
<clipPath id="clip0_1_5">
<rect width="120" height="48" fill="white" transform="translate(0 0.5)"/>
</clipPath>
</defs>
</svg>
