<svg width="20" height="21" viewBox="0 0 20 21"  xmlns="http://www.w3.org/2000/svg">
<path d="M15.0257 14.3475L18.5948 17.9159L17.4157 19.095L13.8473 15.5259C12.5196 16.5902 10.8682 17.1691 9.1665 17.1667C5.0265 17.1667 1.6665 13.8067 1.6665 9.66669C1.6665 5.52669 5.0265 2.16669 9.1665 2.16669C13.3065 2.16669 16.6665 5.52669 16.6665 9.66669C16.6689 11.3684 16.09 13.0198 15.0257 14.3475ZM13.354 13.7292C14.4114 12.6414 15.002 11.1837 14.9998 9.66669C14.9998 6.44419 12.389 3.83335 9.1665 3.83335C5.944 3.83335 3.33317 6.44419 3.33317 9.66669C3.33317 12.8892 5.944 15.5 9.1665 15.5C10.6835 15.5021 12.1413 14.9116 13.229 13.8542L13.354 13.7292Z"/>
</svg>
